<?xml version="1.0" encoding="UTF-8" standalone="no"?>
<svg
   xmlns:dc="http://purl.org/dc/elements/1.1/"
   xmlns:cc="http://creativecommons.org/ns#"
   xmlns:rdf="http://www.w3.org/1999/02/22-rdf-syntax-ns#"
   xmlns:svg="http://www.w3.org/2000/svg"
   xmlns="http://www.w3.org/2000/svg"
   xmlns:sodipodi="http://sodipodi.sourceforge.net/DTD/sodipodi-0.dtd"
   xmlns:inkscape="http://www.inkscape.org/namespaces/inkscape"
   sodipodi:docname="email.svg"
   inkscape:version="1.0 (1.0+r73+1)"
   width="103px"
   height="103px"
   viewBox="0 0 103 103"
   version="1.1"
   id="SVGRoot">
  <defs
     id="defs6838" />
  <sodipodi:namedview
     inkscape:window-maximized="0"
     inkscape:window-y="25"
     inkscape:window-x="0"
     inkscape:window-height="912"
     inkscape:window-width="1631"
     showgrid="false"
     inkscape:document-rotation="0"
     inkscape:current-layer="layer1"
     inkscape:document-units="px"
     inkscape:cy="113.40624"
     inkscape:cx="251.9797"
     inkscape:zoom="1.8803892"
     inkscape:pageshadow="2"
     inkscape:pageopacity="0.0"
     borderopacity="1.0"
     bordercolor="#666666"
     pagecolor="#ffffff"
     id="base" />
  <metadata
     id="metadata6841">
    <rdf:RDF>
      <cc:Work
         rdf:about="">
        <dc:format>image/svg+xml</dc:format>
        <dc:type
           rdf:resource="http://purl.org/dc/dcmitype/StillImage" />
        <dc:title></dc:title>
      </cc:Work>
    </rdf:RDF>
  </metadata>
  <g
     id="layer1"
     inkscape:groupmode="layer"
     inkscape:label="Layer 1">
    <path
       id="path6996"
       d="M 7.9093927,94.731042 C 5.4630281,94.236372 2.2877864,91.700062 1.2280254,89.394109 0.60062745,88.028954 0.1796663,86.387694 0.1796663,85.306739 c 0,-0.457298 -0.084658,-0.831451 -0.18812907,-0.831451 -0.12465217,0 -0.18812521,-10.724484 -0.18812521,-31.785822 0,-21.061336 0.0634692,-31.785819 0.18812521,-31.785819 0.10347227,0 0.18812907,-0.401692 0.18812907,-0.892649 0,-2.437012 1.371812,-5.391679 3.2314664,-6.96008 0.6298969,-0.531241 1.239875,-1.058415 1.3555072,-1.171489 C 5.2133186,11.442625 7.094061,10.625794 8.0872186,10.437258 8.7800965,10.305721 23.531681,10.256542 52.202774,10.290163 l 43.074599,0.05051 1.183598,0.47763 c 0.650977,0.262694 1.32823,0.613771 1.505002,0.780176 0.176781,0.166402 0.852032,0.720912 1.50055,1.232243 0.883667,0.696732 1.390437,1.301574 2.022357,2.413736 0.46377,0.816223 0.84322,1.594885 0.84322,1.730362 0,0.135471 0.0731,0.246321 0.16241,0.246321 0.0894,0 0.27982,0.545106 0.42329,1.211351 0.37762,1.753488 0.38936,66.726332 0.0124,68.417039 -0.13667,0.612946 -0.32714,1.114442 -0.42328,1.114442 -0.0961,0 -0.17479,0.08484 -0.17479,0.18852 0,0.103688 -0.2314,0.692401 -0.51423,1.308255 -0.65159,1.418849 -2.823616,3.652942 -4.252006,4.373512 -2.345433,1.183192 0.795188,1.109082 -46.020286,1.085852 -23.543415,-0.0116 -43.1797014,-0.0968 -43.6362027,-0.18907 z M 20.6854,61.518371 V 38.173822 l 0.94596,0.522717 c 0.520277,0.287497 1.255238,0.806175 1.633246,1.152619 0.378007,0.346447 0.768577,0.629902 0.867939,0.629902 0.09936,0 0.716833,0.348872 1.37216,0.775264 0.655332,0.426395 1.274034,0.775263 1.374896,0.775263 0.100866,0 0.251089,0.116823 0.333831,0.259606 0.158292,0.273144 1.72041,1.320897 2.940432,1.972214 0.39633,0.211583 0.983008,0.624543 1.303734,0.917693 0.320721,0.293145 0.649902,0.532991 0.731509,0.532991 0.0816,0 0.722448,0.373933 1.424091,0.83096 0.701647,0.457026 1.508524,0.951456 1.793064,1.098737 0.284539,0.147279 0.517347,0.331977 0.517347,0.410429 0,0.147828 1.282646,0.972491 2.466064,1.585536 0.373375,0.193419 0.960056,0.610313 1.303734,0.926429 0.343678,0.316117 0.700188,0.574758 0.792247,0.574758 0.09206,0 0.521259,0.245656 0.953776,0.545906 0.432522,0.300248 1.274839,0.825263 1.871819,1.166699 0.596981,0.341436 1.249557,0.789895 1.450169,0.996578 0.20062,0.206684 0.728063,0.565777 1.172095,0.797983 0.444043,0.232211 1.161226,0.671912 1.593741,0.977123 0.432524,0.305211 0.869913,0.554928 0.971988,0.554928 0.102075,0 0.213801,0.07593 0.248297,0.168756 0.08413,0.226353 2.024331,1.48684 2.550681,1.657073 0.308101,0.09964 0.77984,-0.0834 1.787204,-0.693473 0.752723,-0.455873 1.410924,-0.881094 1.462663,-0.944943 0.162033,-0.199981 1.754488,-1.236245 2.503401,-1.629054 0.393909,-0.206609 0.904834,-0.555476 1.135385,-0.775263 0.374007,-0.356556 1.620103,-1.148773 4.019379,-2.555357 0.435358,-0.255229 0.999511,-0.662611 1.253688,-0.905287 0.254157,-0.242681 0.702193,-0.564785 0.995623,-0.715791 1.113385,-0.572972 2.696961,-1.614899 2.696961,-1.774485 0,-0.09144 0.08307,-0.166263 0.18448,-0.166263 0.101465,0 0.640368,-0.300454 1.197578,-0.667681 0.557219,-0.367227 1.401843,-0.891267 1.876948,-1.164541 0.475105,-0.273267 1.088492,-0.711367 1.363093,-0.97355 0.274592,-0.262185 0.671267,-0.532939 0.881489,-0.60168 0.210233,-0.06875 0.956361,-0.507619 1.658071,-0.975288 0.70172,-0.467662 1.357774,-0.850295 1.457924,-0.850295 0.100151,0 0.223888,-0.112222 0.274979,-0.249376 0.05106,-0.137161 0.837555,-0.679966 1.747708,-1.206239 0.910163,-0.526276 1.912643,-1.199456 2.227736,-1.495962 0.315102,-0.2965 0.744049,-0.5937 0.953217,-0.660439 0.209159,-0.06674 0.613107,-0.290274 0.89765,-0.496741 l 0.517337,-0.375404 v 23.368022 23.368023 h 5.361602 5.361583 V 52.677482 20.492046 l -3.433293,0.06043 c -3.327842,0.05857 -3.456415,0.07587 -4.185812,0.562881 -0.41387,0.276344 -1.260438,0.792096 -1.881252,1.146112 -0.620824,0.354016 -1.213419,0.750612 -1.316886,0.88132 -0.103468,0.130706 -0.696062,0.522682 -1.316886,0.871049 -0.620814,0.348369 -1.444531,0.837694 -1.830491,1.08739 -0.38595,0.249696 -0.788069,0.453988 -0.893597,0.453988 -0.105517,0 -0.191858,0.07483 -0.191858,0.166271 0,0.16923 -1.576749,1.195921 -2.886121,1.879273 -0.397468,0.20744 -0.905405,0.558354 -1.128751,0.779819 -0.223356,0.221461 -0.871703,0.666175 -1.440788,0.988258 -2.344945,1.327154 -2.925036,1.681889 -3.10408,1.898182 -0.103468,0.124998 -1.119351,0.777252 -2.257512,1.449446 -1.138161,0.672193 -2.137083,1.341896 -2.219826,1.488226 -0.08278,0.146336 -0.23496,0.266064 -0.338254,0.266064 -0.103303,0 -0.628202,0.287526 -1.166447,0.638948 -0.538246,0.351421 -1.325097,0.822563 -1.74856,1.046985 -0.423463,0.224417 -1.004337,0.631838 -1.290824,0.905378 -0.286486,0.27354 -0.701932,0.556372 -0.923199,0.62852 -0.221267,0.07216 -0.919399,0.467421 -1.551392,0.878371 -0.632003,0.410956 -1.224598,0.748701 -1.316877,0.750547 -0.09226,0.0019 -0.349327,0.198078 -0.571193,0.436083 -0.221857,0.238005 -0.813949,0.650778 -1.315745,0.917281 -1.270834,0.674917 -2.361415,1.378629 -2.741553,1.769016 -0.306224,0.314482 -1.089033,0.300303 -1.089033,-0.01975 0,-0.150371 -1.647607,-1.210289 -2.886112,-1.856669 -0.397468,-0.207435 -0.905414,-0.558958 -1.12876,-0.781157 -0.223347,-0.222202 -0.660059,-0.538313 -0.970461,-0.70247 -1.165848,-0.61655 -3.549182,-2.086177 -3.653799,-2.253024 -0.0598,-0.09536 -0.904157,-0.634075 -1.87636,-1.19713 -0.972196,-0.563051 -1.924583,-1.185426 -2.116418,-1.383062 -0.19183,-0.197631 -0.405171,-0.359334 -0.474087,-0.359334 -0.06891,0 -0.725006,-0.372759 -1.457977,-0.828361 -0.732972,-0.4556 -1.61002,-0.985179 -1.949003,-1.176848 -0.338978,-0.191665 -0.835192,-0.557458 -1.102698,-0.812872 -0.267502,-0.255408 -0.657528,-0.520353 -0.86672,-0.588753 -0.209196,-0.0684 -0.898177,-0.462845 -1.531066,-0.876536 -0.632894,-0.41369 -1.23537,-0.754496 -1.338843,-0.757352 -0.103468,-0.0029 -0.36712,-0.199922 -0.585898,-0.437929 C 28.816708,28.172633 28.224113,27.75649 27.718603,27.485868 26.180101,26.662252 25.0123,25.914363 25.0123,25.752684 c 0,-0.08432 -0.317465,-0.307041 -0.705473,-0.494931 -0.388012,-0.187889 -1.151563,-0.633912 -1.696786,-0.991165 -0.545224,-0.357249 -1.074329,-0.649545 -1.175787,-0.649545 -0.101463,0 -0.334967,-0.15263 -0.518894,-0.339177 -0.383773,-0.389232 -1.855472,-1.405168 -2.035543,-1.405168 -0.06629,0 -0.608279,-0.305258 -1.204431,-0.678356 L 16.591474,20.516 H 13.276848 9.9622167 V 52.689449 84.862902 H 15.323811 20.6854 Z"
       style="fill:#790060;fill-opacity:1;stroke:#790060;stroke-width:0;stroke-linecap:round;stroke-linejoin:round;stroke-dasharray:none" />
  </g>
</svg>
