<?xml version="1.0" encoding="UTF-8" standalone="no"?>
<svg
   xmlns:osb="http://www.openswatchbook.org/uri/2009/osb"
   xmlns:dc="http://purl.org/dc/elements/1.1/"
   xmlns:cc="http://creativecommons.org/ns#"
   xmlns:rdf="http://www.w3.org/1999/02/22-rdf-syntax-ns#"
   xmlns:svg="http://www.w3.org/2000/svg"
   xmlns="http://www.w3.org/2000/svg"
   xmlns:sodipodi="http://sodipodi.sourceforge.net/DTD/sodipodi-0.dtd"
   xmlns:inkscape="http://www.inkscape.org/namespaces/inkscape"
   sodipodi:docname="insta.svg"
   inkscape:version="1.0 (1.0+r73+1)"
   width="103px"
   height="103px"
   viewBox="0 0 103 103"
   version="1.1"
   id="SVGRoot">
  <defs
     id="defs3646">
    <linearGradient
       osb:paint="solid"
       id="linearGradient4376">
      <stop
         id="stop4374"
         offset="0"
         style="stop-color:#47dbc8;stop-opacity:0.74336416;" />
    </linearGradient>
  </defs>
  <sodipodi:namedview
     inkscape:window-maximized="0"
     inkscape:window-y="25"
     inkscape:window-x="0"
     inkscape:window-height="912"
     inkscape:window-width="1631"
     showgrid="false"
     inkscape:document-rotation="0"
     inkscape:current-layer="layer1"
     inkscape:document-units="px"
     inkscape:cy="136.58798"
     inkscape:cx="-17.913065"
     inkscape:zoom="0.81844758"
     inkscape:pageshadow="2"
     inkscape:pageopacity="0.0"
     borderopacity="1.0"
     bordercolor="#666666"
     pagecolor="#ffffff"
     id="base" />
  <metadata
     id="metadata3649">
    <rdf:RDF>
      <cc:Work
         rdf:about="">
        <dc:format>image/svg+xml</dc:format>
        <dc:type
           rdf:resource="http://purl.org/dc/dcmitype/StillImage" />
        <dc:title></dc:title>
      </cc:Work>
    </rdf:RDF>
  </metadata>
  <g
     id="layer1"
     inkscape:groupmode="layer"
     inkscape:label="Layer 1">
    <g
       transform="matrix(0.19819727,0,0,0.20183981,55.164161,21.577092)"
       id="g6818">
      <path
         style="opacity:1;fill:#790060;fill-opacity:1;stroke:#790060;stroke-width:0;stroke-linecap:round;stroke-linejoin:round;stroke-miterlimit:4;stroke-dasharray:none;stroke-dashoffset:0;stroke-opacity:1"
         d="m -137.93514,405.43223 c -13.04097,-0.66432 -39.11568,-5.62425 -40.42471,-7.68959 -0.28218,-0.44521 -2.39712,-1.45547 -4.69986,-2.24501 -7.15316,-2.45258 -19.87384,-8.70737 -22.70349,-11.16335 -1.48489,-1.2888 -3.78764,-2.89057 -5.11722,-3.55948 -9.95918,-5.01048 -32.17458,-27.22587 -37.18506,-37.18505 -0.66891,-1.32958 -2.27068,-3.63233 -3.55948,-5.11722 -2.45597,-2.82966 -8.71076,-15.55034 -11.16334,-22.70349 -0.78954,-2.30275 -1.7998,-4.41769 -2.24502,-4.69987 -1.02467,-0.64944 -4.89015,-16.54963 -6.54787,-26.93386 -1.85702,-11.63272 -1.85702,-255.39312 0,-267.025845 1.65772,-10.3842262 5.5232,-26.2844154 6.54787,-26.9338558 0.44522,-0.2821822 1.45548,-2.3971202 2.24502,-4.6998692 2.45258,-7.153151 8.70737,-19.873834 11.16334,-22.703486 1.2888,-1.484893 2.89057,-3.787642 3.55948,-5.11722 4.97415,-9.886963 27.2981,-32.210907 37.18506,-37.185055 1.32958,-0.668913 3.63233,-2.27068 5.11722,-3.559482 2.82965,-2.455976 15.55033,-8.710759 22.70349,-11.163346 2.30274,-0.78954 4.41768,-1.799795 4.69986,-2.245013 0.64944,-1.024675 16.54963,-4.890158 26.93386,-6.547868 11.63272,-1.85702 255.39312,-1.85702 267.02585,0 10.38423,1.65771 26.28441,5.523193 26.93386,6.547868 0.28218,0.445218 2.39712,1.455473 4.69986,2.245013 7.15315,2.452587 19.87384,8.70737 22.70349,11.163346 1.4849,1.288802 3.78765,2.890569 5.11722,3.559482 9.95918,5.010481 32.17458,27.225875 37.18505,37.185055 0.66892,1.329578 2.27068,3.632327 3.55949,5.11722 2.45597,2.829652 8.71076,15.550335 11.16334,22.703486 0.78954,2.302749 1.7998,4.417687 2.24502,4.6998692 1.02467,0.6494404 4.89015,16.5496296 6.54786,26.9338558 1.85702,11.632725 1.85702,255.393125 0,267.025845 -1.65771,10.38423 -5.52319,26.28442 -6.54786,26.93386 -0.44522,0.28218 -1.45548,2.39712 -2.24502,4.69987 -2.45258,7.15315 -8.70737,19.87383 -11.16334,22.70349 -1.28881,1.48489 -2.89057,3.78764 -3.55949,5.11722 -5.04686,10.03151 -27.15354,32.13819 -37.18505,37.18505 -1.32957,0.66891 -3.63232,2.27068 -5.11722,3.55948 -2.82965,2.45598 -15.55034,8.71077 -22.70349,11.16335 -2.30274,0.78954 -4.41678,1.79833 -4.69786,2.24176 -0.59725,0.94225 -12.83476,4.08485 -24.14465,6.20038 -6.9445,1.29898 -22.707505,1.49742 -129.326108,1.62805 -66.779723,0.0818 -123.929772,0.0208 -127.000102,-0.13559 z m 257.6832,-45.31586 c 3.56081,-0.88081 6.70092,-1.93013 6.97802,-2.33183 0.2771,-0.40169 3.22526,-1.71183 6.55145,-2.91142 6.38591,-2.30307 17.50366,-7.9661 19.07327,-9.71532 0.51173,-0.57027 3.73643,-3.2493 7.16602,-5.95339 3.42959,-2.70409 8.44805,-7.72255 11.15213,-11.15213 2.70409,-3.42959 5.38312,-6.6543 5.9534,-7.16602 1.88894,-1.69499 7.65356,-12.98049 9.75537,-19.09828 1.13802,-3.31244 2.41748,-6.25152 2.84324,-6.53127 0.42577,-0.27976 1.51515,-3.83856 2.42087,-7.90843 1.53199,-6.88417 1.64674,-16.41113 1.64674,-136.72589 0,-120.314759 -0.11475,-129.84172 -1.64674,-136.725888 -0.90572,-4.0698743 -1.97893,-7.6286683 -2.38492,-7.9084314 -0.406,-0.2797537 -1.71965,-3.2300823 -2.91924,-6.55627542 -2.2893,-6.34768828 -7.95536,-17.48597018 -9.70261,-19.07327518 -0.56329,-0.511722 -3.42311,-3.897427 -6.35516,-7.523789 -2.93205,-3.626362 -7.95623,-8.638986 -11.16485,-11.139165 -3.20861,-2.500179 -6.25252,-5.018206 -6.76425,-5.595618 -1.55233,-1.7516 -12.6486,-7.411236 -19.07327,-9.728287 -3.32619,-1.199589 -6.27652,-2.513249 -6.55628,-2.919245 -0.27976,-0.405996 -3.83855,-1.479207 -7.90843,-2.384915 -6.88417,-1.531998 -16.41113,-1.646742 -136.725885,-1.646742 -120.314755,0 -129.841725,0.114744 -136.725885,1.646742 -4.06988,0.905708 -7.62867,1.995095 -7.90843,2.420861 -0.27976,0.425766 -3.21884,1.705223 -6.53128,2.843239 -6.09192,2.092926 -17.38784,7.857221 -19.09827,9.74583 -0.51173,0.565026 -3.71615,3.264336 -7.12095,5.998466 -3.40479,2.734129 -8.42755,7.756887 -11.16168,11.161682 -2.73413,3.404795 -5.43344,6.609219 -5.99846,7.120941 -1.88861,1.710437 -7.65291,13.0063548 -9.74583,19.09827512 -1.13802,3.31244168 -2.41748,6.25152178 -2.84324,6.53127548 -0.42577,0.2797631 -1.51516,3.8385571 -2.42086,7.9084314 -1.532,6.884168 -1.64675,16.411129 -1.64675,136.725888 0,120.31476 0.11475,129.84172 1.64675,136.72589 0.9057,4.06987 1.99509,7.62867 2.42086,7.90843 0.42576,0.27975 1.70522,3.21883 2.84324,6.53127 2.11382,6.15276 7.87854,17.42347 9.76834,19.09828 0.57741,0.51172 3.09544,3.55564 5.59562,6.76425 2.50018,3.20862 7.5128,8.2328 11.13917,11.16484 3.62636,2.93206 7.01206,5.79188 7.52379,6.35516 1.5873,1.74725 12.72558,7.41332 19.07327,9.70261 3.32619,1.19959 6.27652,2.51325 6.55628,2.91925 0.47488,0.68915 10.87339,3.03417 17.16901,3.87186 1.53517,0.20427 60.359941,0.2999 130.721718,0.21251 117.569522,-0.14603 128.454842,-0.2886 134.404712,-1.76037 z"
         id="path6800" />
      <path
         style="opacity:1;fill:#790060;fill-opacity:1;stroke:#790060;stroke-width:0;stroke-linecap:round;stroke-linejoin:round;stroke-miterlimit:4;stroke-dasharray:none;stroke-dashoffset:0;stroke-opacity:1"
         d="m -39.777551,279.83268 c -4.349637,-0.72711 -8.047992,-1.7312 -8.218563,-2.23131 -0.17058,-0.5001 -1.10638,-0.90928 -2.079564,-0.90928 -4.086221,0 -30.01193,-9.97966 -31.570038,-12.15235 -0.255861,-0.35678 -3.693893,-2.60489 -7.640072,-4.99578 -7.766105,-4.70532 -11.682532,-7.93729 -20.935602,-17.27681 -10.8774,-10.97903 -13.90148,-14.72715 -17.50379,-21.69464 -1.00998,-1.95348 -2.48343,-4.25623 -3.27434,-5.11722 -3.2964,-3.58852 -12.98324,-27.96394 -12.98324,-32.67029 0,-0.97318 -0.40173,-1.90898 -0.89272,-2.07956 -1.60928,-0.55907 -3.75182,-17.73846 -3.75182,-30.08305 0,-12.34459 2.14254,-29.52398 3.75182,-30.08305 0.49099,-0.17058 0.89272,-1.10638 0.89272,-2.07956 0,-4.04634 9.95104,-29.948744 12.1284,-31.570041 0.34362,-0.255861 2.80686,-4.023996 5.47388,-8.373633 4.94767,-8.069161 5.71422,-8.996018 16.15909,-19.538477 9.25307,-9.339517 13.169497,-12.571492 20.935602,-17.276802 3.946179,-2.390902 7.384211,-4.639007 7.640072,-4.995789 1.542578,-2.151029 27.614557,-12.152344 31.679398,-12.152344 0.913033,0 1.799624,-0.401724 1.970204,-0.89272 0.55907,-1.609283 17.738462,-3.751815 30.083049,-3.751815 12.3445862,0 29.523978,2.142532 30.083048,3.751815 0.17058,0.490996 1.057171,0.89272 1.970204,0.89272 4.690751,0 29.223989,9.717032 32.779647,12.983242 0.860996,0.790908 3.163745,2.260027 5.11722,3.26471 11.68373,6.009012 30.659843,24.730743 38.971446,38.449021 2.390896,3.946179 4.639002,7.384211 4.995784,7.640072 2.172688,1.558108 12.152346,27.483821 12.152346,31.570041 0,0.97318 0.40172,1.90898 0.89272,2.07956 1.60928,0.55907 3.75182,17.73846 3.75182,30.08305 0,12.34459 -2.14254,29.52398 -3.75182,30.08305 -0.491,0.17058 -0.89272,1.10638 -0.89272,2.07956 0,4.70635 -9.686841,29.08177 -12.983243,32.67029 -0.790908,0.86099 -2.260025,3.16374 -3.264712,5.11722 -3.345564,6.50502 -7.508869,11.62753 -17.876478,21.99514 -10.367609,10.36761 -15.490123,14.53092 -21.995143,17.87648 -1.953475,1.00469 -4.256224,2.4738 -5.11722,3.26471 -3.58852,3.2964 -27.963942,12.98325 -32.670287,12.98325 -0.973184,0 -1.908984,0.40172 -2.079564,0.89272 -0.170571,0.49099 -4.2876068,1.53601 -9.148966,2.32227 -10.9230878,1.76664 -32.004593,1.72999 -42.798568,-0.0744 z m 32.5641278,-42.11035 c 0,-0.45275 2.2950453,-1.10994 5.1000914,-1.4604 10.4289597,-1.30302 27.9722878,-8.21306 34.2342118,-13.48433 1.551699,-1.30621 4.326666,-3.66583 6.166585,-5.2436 1.83992,-1.57776 4.087496,-3.13832 4.994612,-3.46791 0.907125,-0.32958 1.918976,-1.34143 2.248562,-2.24856 0.329586,-0.90711 1.890143,-3.15469 3.467903,-4.99461 1.577769,-1.83992 3.937394,-4.61489 5.243606,-6.16658 5.271267,-6.26193 12.18131,-23.80526 13.484322,-34.23422 0.350464,-2.80504 1.007655,-5.10009 1.460408,-5.10009 0.452762,0 0.823203,-4.81484 0.823203,-10.69964 0,-5.8848 -0.370441,-10.69964 -0.823203,-10.69964 -0.452753,0 -1.119276,-2.36973 -1.481147,-5.26608 C 66.448114,124.59108 59.369538,106.67945 54.242148,100.58845 52.935936,99.036742 50.576311,96.26178 48.998542,94.421862 47.420782,92.581943 45.860225,90.334366 45.530639,89.427247 45.201053,88.520126 44.189202,87.508275 43.282077,87.178689 42.374961,86.849103 40.127385,85.288542 38.287465,83.710778 36.447546,82.133013 33.672579,79.773391 32.12088,78.467174 25.858956,73.195911 8.3156279,66.28587 -2.1133318,64.982857 c -2.8050461,-0.350468 -5.1000914,-1.007654 -5.1000914,-1.460413 0,-0.45276 -4.8148388,-0.8232 -10.6996418,-0.8232 -5.884803,0 -10.699642,0.37044 -10.699642,0.8232 0,0.452759 -2.369729,1.119277 -5.266076,1.481151 -10.06559,1.257613 -27.977223,8.336193 -34.068227,13.463579 -1.551703,1.306217 -4.326665,3.665839 -6.166583,5.243604 -1.839919,1.577764 -4.087496,3.138325 -4.994615,3.467911 -0.907121,0.329586 -1.918972,1.341437 -2.248558,2.248558 -0.329586,0.907119 -1.890147,3.154696 -3.467911,4.994615 -5.869556,6.844808 -7.575035,9.123418 -9.741412,13.015038 -3.153116,5.66415 -8.175411,20.89398 -8.959411,27.16888 -0.36537,2.92433 -1.03475,5.31697 -1.48751,5.31697 -0.45276,0 -0.8232,4.81484 -0.8232,10.69964 0,5.8848 0.37044,10.69964 0.8232,10.69964 0.45276,0 1.11815,2.3607 1.47864,5.24599 0.82131,6.57356 5.443646,20.75442 8.712069,26.72775 2.396661,4.38012 3.911673,6.42998 9.997624,13.52715 1.577764,1.83992 3.138325,4.0875 3.467911,4.99461 0.329586,0.90713 1.341437,1.91898 2.248558,2.24856 0.907119,0.32959 3.154696,1.89015 4.994615,3.46791 1.839918,1.57777 4.61488,3.93739 6.166583,5.2436 6.091004,5.12739 24.002637,12.20597 34.068227,13.46359 2.896347,0.36187 5.266076,1.02839 5.266076,1.48114 0,0.45277 4.814839,0.82321 10.699642,0.82321 5.884803,0 10.6996418,-0.37044 10.6996418,-0.82321 z"
         id="path6811" />
      <path
         style="opacity:1;fill:#790060;fill-opacity:1;stroke:#790060;stroke-width:0;stroke-linecap:round;stroke-linejoin:round;stroke-miterlimit:4;stroke-dasharray:none;stroke-dashoffset:0;stroke-opacity:1"
         d="M 113.27385,44.617708 C 105.9167,43.159774 102.1552,41.074686 96.732347,35.448365 89.742378,28.196128 87.191687,21.262483 87.860213,11.330897 88.600308,0.33607962 94.063119,-8.1609202 104.20242,-14.088194 c 1.66309,-0.97222 3.02381,-2.028927 3.02381,-2.348236 0,-0.319309 2.92948,-1.133316 6.50995,-1.808903 7.5215,-1.419204 15.6361,-0.180508 18.93185,2.889949 1.03993,0.96884 2.43865,1.761528 3.10827,1.761528 2.02225,0 8.67332,6.5995262 10.71924,10.6361755 1.05513,2.08179491 2.21228,3.994422 2.57144,4.250283 1.33359,0.9500361 2.81862,6.933569 2.81862,11.3568825 0,4.645262 -1.66556,12.918893 -2.77082,13.764016 -0.33462,0.255861 -2.03331,2.55861 -3.77486,5.11722 -1.74154,2.55861 -4.19785,5.608309 -5.45846,6.777108 -2.8268,2.620943 -9.25659,5.529651 -13.85443,6.26747 -1.89703,0.304417 -4.28651,0.687398 -5.30995,0.851069 -1.02344,0.163671 -4.3729,-0.200227 -7.44323,-0.80866 z"
         id="path6813" />
    </g>
  </g>
</svg>
